# xmcd CD database file
#
# Track frame offsets:
#	150
#	13367
#	23630
#	38475
#	51417
#	62547
#	70832
#	86757
#	97910
#	110582
#
# Disc length: 1606 seconds
#
# Revision: 0
# Processed by: cddbd v1.5.1PL0 Copyright (c) Steve Scherf et al.
# Submitted via: CDex 1.50beta10
#
DISCID=7c06440a
DTITLE=Slim Whitman - Best Loved Favourites Vol 1
DYEAR=1996
DGENRE=Country
TTITLE0=Red Sails in the Sunset
TTITLE1=Anytime
TTITLE2=Mocking Bird Hill
TTITLE3=Release Me
TTITLE4=The Wayward Wind
TTITLE5=Have You Ever Been Lonely
TTITLE6=Down In the Valley
TTITLE7=Singing the Blues
TTITLE8=Half as Much
TTITLE9=Cara Mia
EXTD=YEAR: 1996
EXTT0=
EXTT1=
EXTT2=
EXTT3=
EXTT4=
EXTT5=
EXTT6=
EXTT7=
EXTT8=
EXTT9=
PLAYORDER=
